HIERARCHY
ROOT Hips
{
	OFFSET -14.64140 90.27770 -84.91600
	CHANNELS 6 Xposition Yposition Zposition Zrotation Xrotation Yrotation
	JOINT Spine
	{
		OFFSET 0.00000 13.20850 -1.60436
		CHANNELS 3 Zrotation Xrotation Yrotation
		JOINT Spine1
		{
			OFFSET 0.00000 8.61716 0.00000
			CHANNELS 3 Zrotation Xrotation Yrotation
			JOINT Spine2
			{
				OFFSET 0.00000 8.61717 0.00000
				CHANNELS 3 Zrotation Xrotation Yrotation
				JOINT Spine3
				{
					OFFSET 0.00000 8.61717 0.00000
					CHANNELS 3 Zrotation Xrotation Yrotation
					JOINT Neck
					{
						OFFSET 0.00000 11.07920 1.10792
						CHANNELS 3 Zrotation Xrotation Yrotation
						JOINT Neck1
						{
							OFFSET 0.00000 7.08032 0.00000
							CHANNELS 3 Zrotation Xrotation Yrotation
							JOINT Head
							{
								OFFSET 0.00000 7.08031 0.00000
								CHANNELS 3 Zrotation Xrotation Yrotation
								End site
								{
									OFFSET 0.00000 0.00000 0.00000
								}
							}
						}
					}
					JOINT RightShoulder
					{
						OFFSET -0.01000 7.91373 5.19711
						CHANNELS 3 Zrotation Xrotation Yrotation
						JOINT RightArm
						{
							OFFSET -18.41580 0.00000 0.00000
							CHANNELS 3 Zrotation Xrotation Yrotation
							JOINT RightForeArm
							{
								OFFSET -29.11090 0.00000 0.00000
								CHANNELS 3 Zrotation Xrotation Yrotation
								JOINT RightHand
								{
									OFFSET -24.65040 0.00000 0.00000
									CHANNELS 3 Zrotation Xrotation Yrotation
									JOINT RightHandThumb1
									{
										OFFSET -5.35114 -0.85590 3.97906
										CHANNELS 3 Zrotation Xrotation Yrotation
										JOINT RightHandThumb2
										{
											OFFSET -4.52789 0.00000 0.00000
											CHANNELS 3 Zrotation Xrotation Yrotation
											JOINT RightHandThumb3
											{
												OFFSET -2.46976 0.00000 0.00000
												CHANNELS 3 Zrotation Xrotation Yrotation
												End site
												{
													OFFSET 0.00000 0.00000 0.00000
												}
											}
										}
									}
									JOINT RightHandIndex1
									{
										OFFSET -14.26970 0.00000 2.88139
										CHANNELS 3 Zrotation Xrotation Yrotation
										JOINT RightHandIndex2
										{
											OFFSET -5.48836 0.00000 0.00000
											CHANNELS 3 Zrotation Xrotation Yrotation
											JOINT RightHandIndex3
											{
												OFFSET -3.01859 0.00000 0.00000
												CHANNELS 3 Zrotation Xrotation Yrotation
												End site
												{
													OFFSET 0.00000 0.00000 0.00000
												}
											}
										}
									}
									JOINT RightHandMiddle1
									{
										OFFSET -14.26970 0.00000 -0.09147
										CHANNELS 3 Zrotation Xrotation Yrotation
										JOINT RightHandMiddle2
										{
											OFFSET -6.17441 0.00000 0.00000
											CHANNELS 3 Zrotation Xrotation Yrotation
											JOINT RightHandMiddle3
											{
												OFFSET -3.56743 0.00000 0.00000
												CHANNELS 3 Zrotation Xrotation Yrotation
												End site
												{
													OFFSET 0.00000 0.00000 0.00000
												}
											}
										}
									}
									JOINT RightHandRing1
									{
										OFFSET -12.69180 0.00000 -3.06433
										CHANNELS 3 Zrotation Xrotation Yrotation
										JOINT RightHandRing2
										{
											OFFSET -5.62556 0.00000 0.00000
											CHANNELS 3 Zrotation Xrotation Yrotation
											JOINT RightHandRing3
											{
												OFFSET -3.56744 0.00000 0.00000
												CHANNELS 3 Zrotation Xrotation Yrotation
												End site
												{
													OFFSET 0.00000 0.00000 0.00000
												}
											}
										}
									}
									JOINT RightHandPinky1
									{
										OFFSET -11.11390 0.00000 -6.03719
										CHANNELS 3 Zrotation Xrotation Yrotation
										JOINT RightHandPinky2
										{
											OFFSET -4.52789 0.00000 0.00000
											CHANNELS 3 Zrotation Xrotation Yrotation
											JOINT RightHandPinky3
											{
												OFFSET -2.46976 0.00000 0.00000
												CHANNELS 3 Zrotation Xrotation Yrotation
												End site
												{
													OFFSET 0.00000 0.00000 0.00000
												}
											}
										}
									}
								}
							}
						}
					}
					JOINT LeftShoulder
					{
						OFFSET 0.01000 7.91373 5.19711
						CHANNELS 3 Zrotation Xrotation Yrotation
						JOINT LeftArm
						{
							OFFSET 18.41580 0.00000 0.00000
							CHANNELS 3 Zrotation Xrotation Yrotation
							JOINT LeftForeArm
							{
								OFFSET 29.11090 0.00000 0.00000
								CHANNELS 3 Zrotation Xrotation Yrotation
								JOINT LeftHand
								{
									OFFSET 24.65040 0.00000 0.00000
									CHANNELS 3 Zrotation Xrotation Yrotation
									JOINT LeftHandThumb1
									{
										OFFSET 5.35114 -0.85590 3.97906
										CHANNELS 3 Zrotation Xrotation Yrotation
										JOINT LeftHandThumb2
										{
											OFFSET 4.52789 0.00000 0.00000
											CHANNELS 3 Zrotation Xrotation Yrotation
											JOINT LeftHandThumb3
											{
												OFFSET 2.46977 0.00000 0.00000
												CHANNELS 3 Zrotation Xrotation Yrotation
												End site
												{
													OFFSET 0.00000 0.00000 0.00000
												}
											}
										}
									}
									JOINT LeftHandIndex1
									{
										OFFSET 14.26970 0.00000 2.88139
										CHANNELS 3 Zrotation Xrotation Yrotation
										JOINT LeftHandIndex2
										{
											OFFSET 5.48836 0.00000 0.00000
											CHANNELS 3 Zrotation Xrotation Yrotation
											JOINT LeftHandIndex3
											{
												OFFSET 3.01859 0.00000 0.00000
												CHANNELS 3 Zrotation Xrotation Yrotation
												End site
												{
													OFFSET 0.00000 0.00000 0.00000
												}
											}
										}
									}
									JOINT LeftHandMiddle1
									{
										OFFSET 14.26970 0.00000 -0.09147
										CHANNELS 3 Zrotation Xrotation Yrotation
										JOINT LeftHandMiddle2
										{
											OFFSET 6.17440 0.00000 0.00000
											CHANNELS 3 Zrotation Xrotation Yrotation
											JOINT LeftHandMiddle3
											{
												OFFSET 3.56744 0.00000 0.00000
												CHANNELS 3 Zrotation Xrotation Yrotation
												End site
												{
													OFFSET 0.00000 0.00000 0.00000
												}
											}
										}
									}
									JOINT LeftHandRing1
									{
										OFFSET 12.69180 0.00000 -3.06433
										CHANNELS 3 Zrotation Xrotation Yrotation
										JOINT LeftHandRing2
										{
											OFFSET 5.62556 0.00000 0.00000
											CHANNELS 3 Zrotation Xrotation Yrotation
											JOINT LeftHandRing3
											{
												OFFSET 3.56744 0.00000 0.00000
												CHANNELS 3 Zrotation Xrotation Yrotation
												End site
												{
													OFFSET 0.00000 0.00000 0.00000
												}
											}
										}
									}
									JOINT LeftHandPinky1
									{
										OFFSET 11.11390 0.00000 -6.03719
										CHANNELS 3 Zrotation Xrotation Yrotation
										JOINT LeftHandPinky2
										{
											OFFSET 4.52789 0.00000 0.00000
											CHANNELS 3 Zrotation Xrotation Yrotation
											JOINT LeftHandPinky3
											{
												OFFSET 2.46976 0.00000 0.00000
												CHANNELS 3 Zrotation Xrotation Yrotation
												End site
												{
													OFFSET 0.00000 0.00000 0.00000
												}
											}
										}
									}
								}
							}
						}
					}
					JOINT pCube4
					{
						OFFSET 0.00000 10.91090 1.10792
						CHANNELS 3 Zrotation Xrotation Yrotation
						End site
						{
							OFFSET 0.00000 0.00000 0.00000
						}
					}
				}
			}
		}
	}
	JOINT RightUpLeg
	{
		OFFSET -9.98441 0.00000 0.00000
		CHANNELS 3 Zrotation Xrotation Yrotation
		JOINT RightLeg
		{
			OFFSET 0.00000 -42.11790 0.00000
			CHANNELS 3 Zrotation Xrotation Yrotation
			JOINT RightFoot
			{
				OFFSET 0.00000 -45.00020 -0.00001
				CHANNELS 3 Zrotation Xrotation Yrotation
				JOINT RightForeFoot
				{
					OFFSET 0.00000 -3.74820 0.00000
					CHANNELS 3 Zrotation Xrotation Yrotation
					JOINT RightToeBase
					{
						OFFSET 0.00000 0.06325 14.43120
						CHANNELS 3 Zrotation Xrotation Yrotation
						End site
						{
							OFFSET 0.00000 0.00000 0.00000
						}
					}
				}
			}
		}
	}
	JOINT LeftUpLeg
	{
		OFFSET 9.98441 0.00000 0.00000
		CHANNELS 3 Zrotation Xrotation Yrotation
		JOINT LeftLeg
		{
			OFFSET 0.00000 -42.11800 0.00000
			CHANNELS 3 Zrotation Xrotation Yrotation
			JOINT LeftFoot
			{
				OFFSET 0.00000 -45.00070 0.00000
				CHANNELS 3 Zrotation Xrotation Yrotation
				JOINT LeftForeFoot
				{
					OFFSET 0.00000 -3.74824 0.00000
					CHANNELS 3 Zrotation Xrotation Yrotation
					JOINT LeftToeBase
					{
						OFFSET 0.00000 0.06325 14.43110
						CHANNELS 3 Zrotation Xrotation Yrotation
						End site
						{
							OFFSET 0.00000 0.00000 0.00000
						}
					}
				}
			}
		}
	}
}
MOTION
Frames: 4
Frame Time: 0.050000
-0.03581607285218357 -0.007962073210939299 0.01686977694642143 -0.019215920756435682 0.02224105584621558 -0.0011398150698130238 -3.668193231843596 6.148930089686321 -0.7508520745692249 -1.1057976699255117 4.110224012626198 0.4633460591791727 -1.043071687624774 0.7715652959322741 -0.036970117509871496 1.2409723150356018 1.0549168773724402 -0.8303787663707924 -0.008502167187801023 9.63649137368119 -1.163402829183 -0.44815491220256465 -1.7011614389342253 -6.003041362892123 0.07295772078449243 -16.215339923416803 -0.42118622427277064 4.698216542506242 -0.8439020009649489 -14.46561426139311 62.63942648634469 17.41503929457469 13.029067830458688 17.97393327580144 6.164258665476171 94.30847124745426 13.852650411149837 -0.2986159280203287 -7.879486329149291 4.531514898223383 -0.09969776048951062 -1.6173538930372802 -0.009131054338059264 -0.019093238865285342 -56.24188262605406 -0.0491454609318849 -0.01045988137982611 -56.22649363215698 -38.768374818603085 -0.04055950394467426 0.02591995743139417 0.04861512355990291 -0.030948047808465124 0.00245507940901369 0.010966383516541015 0.025250781665346 -0.03944212572673339 -36.6825840777559 0.04530162799620882 0.028582936559424774 -0.012859691218535172 0.022276222886951094 -0.04580474904444426 -0.02277187393288358 0.04242059755282024 -0.03130328776006304 -19.77866004395738 -0.021212770553953066 0.03948878910054365 0.027841972072614973 -0.02168772539512741 -0.03385909632473059 -0.01530281288528167 0.016977345246597324 -0.02957038916058753 24.022032874047493 -0.006186410097629071 0.013257692976982951 28.867480239207563 -0.013056086593550615 -0.025440130227232422 28.907325705812838 0.048365283958576775 0.003332082235163329 -4.967756602380268 -0.5458452384376516 12.855498067168613 -62.51340718796037 28.16701558770491 -7.351310848754141 -2.272872169587846 3.7842196960462013 -63.88931787894309 -13.59190671994888 3.855461590024559 0.40262610919803266 -0.5082974166797556 0.06457085690411561 -8.119369488762018 -0.04151776217212719 -0.0472344113214997 44.59022430509651 -0.009270076678018956 0.005859515340306591 44.55511217064518 12.500030772866083 -0.007613451006374866 -0.0029365133508265483 0.04669177973727451 0.022160767423208733 0.02610360177624601 0.00020368657466693634 -0.02497232202174479 -0.037509534100627025 11.05942693767488 -0.014420574864203542 -0.03374577478901428 -0.0493225031537679 0.011245521807802488 -0.0432936800452756 -0.04372711095229916 0.006450939904409997 -0.013909441515445792 4.749348116569783 -0.0135827489768206 -0.0006177860340314536 0.048215292911412556 -0.03963792614668859 -0.00897113720086788 0.03629492515322328 -0.009495535787223156 -0.0035500381791618886 -5.556265185910985 -0.030110922592471716 0.03587004052067309 -6.765738319731642 0.04154183890951057 0.009583270956737241 -6.733861546451751 -0.000749164917801634 0.009830082629034616 -0.009516339646444376 -0.023521659772004024 0.005345645823615303 8.076771764894955 3.5389377091878536 -19.209228043893347 -0.01194386755062139 10.429333774078986 0.020769271148781195 -5.572581127311923 -15.707746472005793 3.193416058434508 -0.04676218680627773 -0.02302737781000674 0.028230797502299242 0.010465684080296673 4.6918346999082585 0.003758447589994264 12.478625504339925 -8.22752822833279 6.906585158885697 0.013402392960238424 46.331612989517026 -0.00030038770564935996 -4.324062740635331 -14.780531667979172 -3.843800381911625 -0.00013688581584601106 0.0332979531638686 0.04506954162136831 -0.00011316927875876846 -10.750343171013965 -0.04106750610579066 
0.020809573277901585 0.0010304343723610992 0.0078923930477483 -0.03897849861555851 -0.035457537595356504 -0.015533011434918288 -3.558476255505873 6.292470550319604 -0.7636157545824463 -1.097415802374297 4.024607901469252 0.4362895028057347 -1.0398991583239874 0.8108967129975269 -0.11779133855200978 1.2004613212623045 1.058184398039561 -0.8242865268721823 -0.008398801742782059 9.543838830363905 -1.147304811819477 -0.41045676779616314 -1.7623316605483668 -5.904286836250484 0.037083784898393916 -16.305977750220734 -0.48085388145041313 4.787919272133869 -0.8039964294126972 -14.35396318015221 62.712102240548354 16.99787580585769 12.584812842883858 19.56800363777876 6.717012216721992 93.8665993116355 14.302686744227554 -0.27877232401280316 -8.122167440634534 4.526800372438254 -0.16967085121178693 -1.5440541546899473 -0.016692548884842548 0.04742264210971932 -56.198525016405114 -0.025056006610892488 0.019597242447642597 -56.1942038483452 -38.80207085078267 0.03725030871935851 -0.02096256799654781 -0.02468237682221642 -0.043189183105712604 -0.047514392432795496 0.037336160647637597 0.027113072883981747 -0.009774668865835405 -36.68705007575369 0.01861824281328641 -0.035464252280134306 0.003123038514688802 -0.02380773702369609 -0.016412773828567522 0.04884384108905861 -0.007613626251180454 0.04509562001303087 -19.771522286340343 0.033219734143970996 0.046290070614845115 0.036843487679095996 0.008926272464488388 0.03518244843533142 -0.01692705389075373 0.019555831473185566 0.04466071295198402 24.027814466091204 0.01044985946860066 -0.04328337828134166 28.914097765595812 -0.020149793349124232 -0.0011676620812298643 28.895318002257923 0.033584302717289974 -0.04025728186694479 -4.905132660816102 -0.5257132113210434 12.733603561313995 -62.24585719518767 28.285926069911365 -7.702495293263509 -3.806701258924007 4.432993504562456 -66.37794912334185 -13.990845543191408 3.4196131470188935 0.5838324389670089 -0.4699791523741853 0.09275173550819754 -8.12619204911468 -0.017089202718520855 -0.035627779146016156 44.53130482295224 -0.04605710128002421 0.0014146883566685088 44.587559659430056 12.481259212321469 0.005029030415154084 -0.04960605392095148 0.024036919672394335 0.01597833796094991 0.022221512168037756 0.017912417674587736 -0.04063859523172489 -0.011177090323267885 11.10670706092043 -0.019375808103878202 0.011864684044868673 -0.04653008572105137 -0.013232045305499578 0.014705170196132445 -0.011144126593780206 0.006325948957548943 0.04991892219953089 4.784983729285721 -0.02542817089659976 -0.01636275894479326 -0.034137261007753175 0.03414379399581835 -0.02223300384910149 0.0008464330220227921 -0.00015376171868205108 -0.030914989093400607 -5.6416255956542125 -0.005810097714449239 -0.0036006678299575585 -6.714894602881452 0.003849563608909056 0.0391205311605536 -6.747855736369654 -0.012184837758360063 -0.007970601803679842 0.02740068740062276 -0.004694858604575474 0.008691073593544745 8.080987990206594 3.4735716462696464 -19.250870115705137 0.03467073334508297 10.414961722629211 -0.003231275768711385 -5.601941005276563 -15.61531326384035 3.2291655037247597 -0.014846012708440024 0.0181712526644169 0.04338460080830439 0.03795474668969556 4.658533805498619 0.01885085759479525 12.425370830980164 -8.218878641588255 6.907992696042488 -0.03141054612728999 46.37437892674295 0.0023780363248663305 -4.3555535202159525 -14.735156627351634 -3.828749666328005 0.007823211614309015 0.0014894712374189096 0.0023737007811401724 -0.031492732400860465 -10.774696463239367 0.023926995485479358 
0.016444501310920807 0.04860223999938074 0.0049923019702660075 -0.028047536355545407 0.025094691519885595 -0.002860948137849324 -3.47517500169085 6.289435873792901 -0.7257708088004219 -1.0565348658314542 4.051915103772139 0.4800952816620526 -1.0039138057477763 0.7817151311767899 -0.21462121441241797 1.1532481637163001 1.0305805194159 -0.8345213971323308 -0.10384574126049143 9.431436522467266 -1.0349565704350276 -0.44920325232457625 -1.7881746974594852 -5.732445526031016 0.00033697555322315456 -16.392236628844877 -0.4354739696907552 4.688105031179586 -0.7944011802908926 -14.226124431739153 63.09483853495731 16.91342211703121 12.13174444797868 21.663567658652944 7.1742708728073366 93.85238342254965 14.645445445668733 -0.29754950402694313 -8.310602645527393 4.5317973785961 -0.11343357117541196 -1.6154183332277334 -0.027765583642831257 -0.005150882365663917 -56.24985780068959 0.03480660603814934 0.04336757956007205 -56.19430048847695 -38.734722093125086 0.01157720192505559 0.010309195466312558 -0.03694077817466793 -0.031273574116623015 0.047098734514366435 -0.045773434386181436 -0.017611719970339265 -0.007748024312400625 -36.65540683977498 0.007927167690293757 0.045707278202815005 -0.022035913220242228 0.007185108643592878 -0.03076569890604833 0.020106670494393644 0.005248926727080796 -0.04558299419264892 -19.751302587469258 0.007283506082512843 -0.006939531984014064 0.02516593141808252 0.018263947355395282 -0.016917631522359897 -0.0035659915768274956 -0.02022236277723886 0.01501079200176915 24.03663040118938 0.0041966976575043054 -0.034915735642845946 28.82315017894161 -0.0011022367042524592 0.040577536328924045 28.909774685800215 0.006130285746849186 0.0003158948124600951 -4.6465794313919355 -0.4635721094329824 12.571117094122938 -62.11093495632158 28.49059427063315 -8.256719018590314 -5.8427368168175 5.014198505285686 -69.40696282441954 -14.173225982759861 2.7908476329140623 0.7836459257863647 -0.47475108185673165 0.041457360461152115 -8.157833636458093 0.007271399320552721 0.04775348193188121 44.588417774512244 0.02209387885388241 -0.030285399441260262 44.5947735791066 12.456199417779443 0.00541792077064471 0.03786767447032517 0.017850006309298873 -0.003748702542075909 -0.026977067439227124 -0.008367363980532463 0.04227498901981075 -0.0016016181222998764 11.126836550099535 0.03858584190895128 0.0005697453526230942 -0.0018863766352075532 0.040089209948172305 0.02940716055962811 0.007723151471499297 0.015691437525775002 -0.04515500161784028 4.819264959902176 -0.011868942581719288 0.0009483103615758478 -0.008618151085826366 0.008089337075422394 -0.020068644337774832 0.047046016521968964 0.027512084622215924 -0.028621546249441115 -5.579496714645875 -0.00445333099880292 -0.046013776615110406 -6.717019588617312 -0.016500843491372534 0.016709976844958035 -6.723608059026295 0.0010136616760985254 -0.038956789858765606 -0.04130347123113087 0.027926711805133387 0.017265270527352605 8.001065316507322 3.5178689062490176 -19.18293726893931 -0.0358483647068553 10.395765343687453 0.008648234351453999 -5.654797010232607 -15.646452965251546 3.1632665723360742 -0.025114918816949 -0.0037829484863292897 -0.040052731629055184 -0.013611764166085534 4.6648204647576526 -0.026437686824709546 12.457877173829448 -8.238887938145112 6.863924948367692 0.004558116201866798 46.38779609861902 -0.02046809844465623 -4.312182637370822 -14.748089306773599 -3.8408746862994754 -0.03730644639371531 -0.023882772117234302 -0.01873265432170756 -0.009762537551365495 -10.74228217433153 0.024383656937453594 
0.005911739517640886 0.011603448247107774 -0.012951446290033967 0.024587275804286796 0.028672846034518824 0.004562387327174098 -3.2963420864827317 6.246280684361541 -0.7511044031354641 -0.977138821728695 3.982545781708254 0.42556653141142503 -0.9322708861711594 0.6879045462460724 -0.2833820227426778 1.1191386063080622 0.9693080725977404 -0.8720110869576582 -0.11338379418264315 9.447632262207948 -0.9868718357727199 -0.3978339269204165 -1.7306357611041603 -5.476448094646998 -0.04231876382553967 -16.42230903268521 -0.4047626991868176 4.593927004547314 -0.6656782584112306 -14.152622363303033 63.63252839089155 16.62898661867943 11.566013014356642 24.085626898748302 7.674764932365428 94.07790953613244 14.943484155200942 -0.2514310228895354 -8.4108988504932 4.519218538705249 -0.13887132269198776 -1.5952264948413535 -0.020511239233522844 -0.003225813230679904 -56.192544913781234 -0.012455520001239812 0.029269447496369186 -56.25932753280701 -38.746048005946825 -0.016516355358362537 0.017763754677746813 -0.026254414371725546 0.02990056043538492 0.007520751253245092 -0.033199495207274346 -0.02256813732509409 -0.006720365250182169 -36.71166357045057 0.049601779350450834 0.025209634640846704 0.002480828234726437 -0.018736848607498226 0.015949740232778717 -0.04896439469643933 0.004420243893635432 0.034646055368589786 -19.750804868552407 0.01039382080197347 0.03898485438028222 -0.02855711904324964 -0.017764164346523184 -0.03233291223170457 0.02470357015257558 0.00803996225319695 -0.020263143366819076 24.034373687107855 -0.00023571325398128533 -0.040398938142665826 28.847242812904952 0.004705412233412062 -0.0060284449842561314 28.86795605551725 0.02395008302445861 -0.04432951637175456 -4.172234589247944 -0.3648919386825495 12.48353930515867 -62.276283870695046 28.740251498705938 -8.860509831607462 -8.017528009005847 5.632008477483683 -72.9842519074086 -14.237597004551835 2.3037245124407173 0.8826880690636925 -0.4464705916198651 0.045599313486944765 -8.078582826313308 -0.010887811979843058 -0.008010419978034936 44.544459058078544 -0.021935869780191557 0.04428218815416494 44.597342417527464 12.47837829673582 -0.02623282944453115 -0.03547766077655669 -0.02151823852667485 -0.008042102319680146 0.023226656359939604 0.007419994951297791 0.011705643835014165 -0.007096882118757354 11.104215366928571 -0.04072515315990838 0.019343886570410432 0.0004004409497858228 0.022629769457481113 -0.011794000056067518 0.03774099560913103 -0.02974931355857659 0.04827377300040297 4.789292873635325 -0.026028264052798122 0.044372686284215694 0.009950207308866667 0.025236767231898872 -0.030393195941118112 -0.01787178075751704 0.029354088454744683 -0.005225046240465678 -5.647071865690032 -0.002384304770293968 0.027710672661870835 -6.718869902916004 -0.010364446693381175 0.04343810561097434 -6.769848641646144 0.013881681791934945 0.020278354310097182 -0.01969020238877832 -0.04561198860543794 0.037089170849085806 8.028883962538021 3.4582942304744617 -19.177180737349246 0.03332611418954208 10.413596009381342 0.05981401341118281 -5.642886097956356 -15.672715986165915 3.1536481397495835 0.03171148882557224 -0.027689231882712096 0.04948338140159302 -0.008751043517197413 4.712420758685272 0.044416014522040956 12.416543255021608 -8.235899849921768 6.893296908590779 -0.002639159564728157 46.37004631976684 -0.01167717878112708 -4.276948192676038 -14.720808943763924 -3.8387635398673177 -0.04488921365458744 0.009107628099886862 -0.008266559078099603 0.04093810551937264 -10.726285933195 0.006550987561469573 
